<?xml version="1.0" standalone="no"?>
<!DOCTYPE svg PUBLIC "-//W3C//DTD SVG 20010904//EN" "http://www.w3.org/TR/2001/REC-SVG-20010904/DTD/svg10.dtd">
<svg version="1.0" xmlns="http://www.w3.org/2000/svg"
     width="1024.000000pt" height="1024.000000pt" viewBox="0 0 1024.000000 1024.000000"
     preserveAspectRatio="xMidYMid meet">

    <g transform="translate(0.000000,1024.000000) scale(0.100000,-0.100000)"
       fill="#000000" stroke="none">
        <path d="M4859 8607 c-2 -3 -35 -7 -74 -11 -346 -30 -639 -101 -1020 -246
-185 -71 -438 -205 -650 -346 -320 -211 -652 -555 -876 -909 -191 -301 -282
-488 -384 -790 -96 -283 -142 -511 -165 -815 -57 -760 140 -1488 584 -2157
219 -329 641 -742 962 -941 561 -348 1062 -509 1722 -552 374 -24 905 46 1269
169 344 115 719 313 1002 529 373 284 639 589 891 1022 172 296 268 528 355
855 73 277 97 481 96 820 -1 389 -31 602 -131 950 -103 355 -212 585 -445 940
-147 223 -249 350 -414 516 -398 398 -888 679 -1466 842 -243 68 -267 73 -515
103 -122 15 -728 32 -741 21z m721 -331 c341 -56 503 -97 751 -195 329 -129
661 -331 909 -552 79 -71 292 -300 357 -384 367 -476 597 -1049 644 -1603 20
-233 -3 -780 -36 -865 -5 -12 -14 -16 -27 -11 -11 3 -101 14 -199 23 -206 20
-230 16 -327 -43 -55 -33 -91 -70 -80 -82 2 -2 94 -11 204 -19 270 -22 334
-31 352 -49 13 -13 13 -23 2 -78 -7 -35 -16 -70 -21 -78 -7 -14 -226 -16
-2056 -18 -1913 -2 -2049 -3 -2061 -19 -7 -10 -55 -61 -107 -114 l-95 -96 244
-6 c134 -4 1022 -7 1972 -7 l1729 1 27 -31 c51 -55 48 -114 -5 -154 l-28 -21
-2152 -2 c-1184 -1 -2181 -2 -2217 -4 -146 -5 -836 12 -861 22 -41 16 -62 61
-50 106 6 21 18 48 26 61 16 21 21 22 188 23 95 0 189 3 209 7 l36 7 -39 65
c-22 36 -47 89 -55 119 l-16 54 -314 -6 c-353 -7 -326 -13 -340 71 -9 55 3
110 26 122 10 5 154 15 318 22 l300 12 39 48 c21 27 39 53 41 58 6 15 -52 39
-141 56 -79 16 -96 16 -248 0 -90 -9 -202 -16 -249 -17 -47 0 -106 -4 -133 -8
l-47 -8 -10 36 c-36 139 -50 709 -22 911 39 271 130 597 232 830 95 215 259
490 408 685 129 167 347 385 518 517 444 343 1057 577 1644 627 170 15 637 6
760 -13z m1590 -4664 c205 -5 215 -6 237 -28 48 -48 36 -120 -27 -157 -26 -16
-187 -17 -2249 -17 -2406 0 -2267 -3 -2304 53 -33 51 -10 124 47 148 23 9
3938 11 4296 1z m-2873 -458 c27 -5 53 -51 53 -94 0 -48 -47 -90 -102 -91
-469 -8 -485 -7 -517 12 -17 10 -39 34 -47 53 -16 32 -15 36 2 72 11 22 30 44
43 50 17 9 98 11 285 7 143 -2 271 -6 283 -9z m1356 -14 c36 -29 52 -83 37
-121 -26 -61 -6 -59 -566 -59 l-512 0 -31 35 c-37 42 -40 85 -11 133 l20 32
519 0 c505 0 519 -1 544 -20z m583 0 c38 -11 82 -25 99 -30 26 -9 32 -7 50 16
16 21 31 26 80 31 79 7 109 -6 136 -58 21 -41 21 -42 2 -68 -41 -56 -126 -75
-206 -47 -25 9 -48 11 -70 6 -61 -16 -234 -33 -290 -28 -63 5 -92 24 -113 75
-16 36 -8 65 25 101 20 20 31 22 120 22 69 0 118 -6 167 -20z m-875 -468 c38
-43 39 -85 2 -109 -24 -16 -52 -18 -218 -18 -260 1 -295 10 -295 78 0 42 23
75 58 80 15 3 116 4 225 3 l199 -1 29 -33z"/>
        <path d="M4661 7937 c-35 -38 -28 -71 24 -107 53 -36 70 -36 98 3 l21 27 -32
33 c-17 18 -44 40 -60 49 -28 17 -30 17 -51 -5z"/>
        <path d="M5554 7896 c-38 -34 -39 -35 -24 -63 21 -38 55 -40 107 -6 55 35 61
52 28 80 -36 32 -65 29 -111 -11z"/>
        <path d="M5025 7872 c-28 -11 -60 -24 -71 -30 -37 -20 -105 -103 -132 -160
-23 -49 -27 -71 -27 -152 0 -82 4 -103 27 -152 60 -128 161 -197 304 -206 73
-4 88 -2 138 21 78 36 159 116 199 196 29 59 32 74 32 156 0 79 -4 97 -29 149
-61 124 -160 186 -306 193 -65 3 -97 -1 -135 -15z m285 -98 c57 -31 90 -74 90
-119 0 -65 -14 -64 -87 7 -47 45 -83 70 -111 79 -30 8 -42 17 -40 28 6 31 94
34 148 5z"/>
        <path d="M6585 7597 c-69 -23 -124 -64 -310 -232 -139 -125 -232 -222 -262
-274 -44 -74 -74 -169 -78 -250 l-4 -76 -98 -94 c-80 -77 -547 -487 -721 -634
-24 -20 -122 -109 -216 -196 -181 -168 -373 -338 -546 -485 -58 -49 -153 -137
-213 -195 l-107 -106 -118 -1 c-178 -2 -253 -29 -472 -167 -135 -85 -359 -264
-404 -323 -82 -107 -53 -275 69 -403 73 -76 135 -105 230 -106 128 0 175 29
438 273 96 89 175 172 202 212 52 75 103 217 112 307 l6 63 111 102 c62 57
174 159 251 228 76 69 180 163 229 209 170 157 533 476 691 606 211 173 292
243 478 413 156 141 158 142 205 142 56 0 178 28 282 65 145 52 355 179 478
290 90 82 125 158 130 284 4 110 -15 180 -72 254 -67 87 -190 127 -291 94z
m89 -286 c17 -18 15 -21 -31 -73 -128 -140 -506 -478 -536 -478 -22 0 -31 22
-23 55 13 52 276 303 452 433 40 29 77 59 84 67 17 20 33 19 54 -4z m-2760
-2417 c18 -7 22 -55 6 -84 -9 -17 -273 -254 -385 -346 -88 -72 -212 -154 -233
-154 -27 0 -36 28 -17 56 47 72 260 272 458 430 129 103 141 110 171 98z"/>
        <path d="M5663 7573 c-20 -4 -23 -11 -23 -48 0 -24 4 -46 8 -49 5 -3 43 -6 86
-7 59 -2 80 1 87 12 13 20 11 73 -3 87 -12 12 -106 15 -155 5z"/>
        <path d="M4467 7550 c-3 -12 -3 -37 0 -56 l6 -34 72 0 c84 0 98 10 93 67 l-3
38 -81 3 c-76 3 -82 1 -87 -18z"/>
        <path d="M3647 7508 c-14 -18 -49 -82 -79 -143 -52 -104 -119 -223 -202 -359
-40 -67 -43 -78 -21 -96 11 -9 40 -10 112 -5 l96 7 -30 -38 c-16 -22 -58 -82
-93 -134 -34 -52 -84 -124 -110 -160 -26 -36 -51 -76 -55 -89 l-7 -23 105 4
c70 2 103 0 99 -7 -10 -18 -210 -318 -244 -367 -18 -26 -36 -47 -39 -47 -5 -1
-91 123 -122 175 -6 10 8 13 67 11 41 -1 77 1 81 5 8 8 -4 32 -73 138 -31 47
-68 106 -83 132 l-28 47 72 3 c90 4 93 12 34 104 -24 38 -66 110 -92 159 -77
143 -101 175 -134 175 -25 0 -33 -9 -72 -80 -24 -45 -77 -136 -116 -203 -40
-67 -73 -130 -73 -139 0 -20 71 -34 121 -23 42 9 39 2 -55 -133 -82 -119 -111
-171 -101 -180 4 -4 40 -7 81 -6 70 1 74 0 62 -17 -112 -158 -184 -270 -208
-323 l-29 -66 37 0 c20 0 52 -4 70 -9 40 -12 137 -2 392 38 442 71 702 105
1030 136 91 8 226 22 300 31 86 10 187 15 282 12 l147 -3 -22 35 c-11 19 -43
70 -69 112 l-48 78 71 -1 c39 -1 75 3 81 9 9 9 -153 263 -186 291 -29 24 -17
31 42 25 60 -6 112 7 112 28 -1 7 -56 105 -123 218 -144 240 -152 246 -204
158 -180 -305 -213 -363 -213 -374 0 -22 22 -28 87 -26 35 1 63 -2 63 -6 -1
-6 -115 -169 -189 -269 -13 -17 -20 -36 -17 -42 4 -6 37 -11 77 -11 l69 0 -52
-79 c-29 -44 -56 -79 -59 -78 -17 5 -269 343 -269 361 0 3 45 6 99 6 58 0 103
4 106 10 4 6 -9 32 -29 58 -19 26 -79 111 -133 190 -54 78 -104 151 -111 161
-12 18 -8 18 82 17 76 -1 98 2 111 15 16 15 16 19 -1 50 -9 19 -34 59 -54 89
-21 30 -88 145 -150 255 -62 110 -117 206 -122 213 -18 21 -46 13 -71 -20z"/>
        <path d="M5532 7248 c-19 -19 -14 -49 14 -90 31 -45 67 -57 103 -37 42 24 39
55 -10 100 -44 40 -84 50 -107 27z"/>
        <path d="M4672 7220 c-47 -34 -53 -59 -22 -90 30 -30 63 -25 99 15 35 41 37
52 15 83 -21 30 -43 28 -92 -8z"/>
        <path d="M5106 7038 c-9 -29 -15 -106 -9 -126 5 -19 12 -22 56 -22 l50 0 -5
71 c-4 45 -11 75 -19 80 -21 13 -69 11 -73 -3z"/>
        <path d="M5362 5913 c-12 -2 -36 -22 -53 -42 -37 -47 -324 -315 -469 -438
-103 -88 -145 -134 -133 -147 22 -21 277 7 501 55 268 58 503 196 577 339 23
45 16 122 -15 155 -52 55 -290 101 -408 78z"/>
        <path d="M4410 5884 c-63 -8 -172 -23 -241 -34 -69 -11 -156 -20 -195 -20 -91
0 -310 -24 -503 -54 -358 -57 -555 -87 -706 -106 -186 -24 -393 -55 -467 -71
-74 -16 -108 -52 -108 -116 1 -142 185 -394 366 -501 134 -80 469 -198 499
-176 6 5 50 40 96 77 122 99 303 208 384 232 l39 12 -49 7 c-270 40 -608 109
-770 158 -98 30 -365 146 -365 160 0 8 68 22 245 48 181 27 445 70 466 76 12
3 18 -5 23 -35 13 -84 168 -181 290 -181 41 0 46 3 70 43 59 98 192 251 252
293 57 38 157 74 171 60 3 -3 -17 -40 -46 -82 -60 -89 -67 -137 -28 -195 40
-60 166 -120 298 -144 35 -6 38 -5 67 37 31 46 172 175 367 338 151 126 185
158 185 175 0 19 -175 19 -340 -1z m-966 -345 c-36 -43 -69 -79 -73 -79 -11 0
-97 58 -112 76 -10 12 -9 17 7 29 39 29 207 70 236 57 4 -2 -22 -39 -58 -83z"/>
        <path d="M5839 5866 c-13 -13 76 -94 116 -106 22 -6 45 -13 52 -15 13 -4 -5
-60 -111 -335 -31 -79 -56 -154 -56 -165 0 -34 20 -45 80 -45 54 0 63 4 171
75 63 41 170 108 238 150 l124 75 36 -27 c20 -15 77 -67 126 -116 86 -84 92
-88 125 -81 70 12 96 30 129 87 17 30 71 102 119 159 48 57 96 115 107 128
l20 25 375 -8 c206 -5 379 -12 383 -17 19 -18 -264 -198 -448 -286 -202 -95
-494 -195 -715 -243 -297 -65 -603 -111 -875 -132 -275 -21 -1338 -9 -1439 17
-20 5 -29 -4 -66 -65 -48 -81 -116 -280 -97 -286 24 -8 301 -36 494 -50 126
-10 526 -19 1093 -26 823 -11 907 -10 1045 5 342 39 585 110 745 219 204 139
397 457 440 727 24 156 6 218 -76 260 l-49 25 -565 0 c-375 1 -604 5 -680 13
-177 19 -831 48 -841 38z m751 -151 c91 -8 118 -19 65 -29 -20 -4 -63 -19 -96
-33 l-60 -26 -52 52 -52 53 60 -6 c33 -3 94 -8 135 -11z m-348 -23 c26 -15 70
-49 99 -75 l52 -48 -89 -51 c-49 -27 -123 -67 -165 -88 -42 -21 -90 -51 -108
-66 -17 -14 -33 -25 -35 -23 -2 2 27 76 65 164 37 88 73 172 78 188 13 35 42
35 103 -1z m698 -32 c0 -6 -28 -45 -63 -88 -35 -42 -78 -98 -97 -124 -18 -27
-35 -48 -38 -48 -11 0 -172 136 -172 145 0 12 153 69 270 100 102 28 100 28
100 15z"/>
    </g>
</svg>
